<svg version="1.1" id="Layer_1" xmlns="http://www.w3.org/2000/svg" xmlns:xlink="http://www.w3.org/1999/xlink" x="0px" y="0px"
	 width="100%" viewBox="0 0 368 366" enable-background="new 0 0 368 366" xml:space="preserve">
<path fill="#393535" opacity="1.000000" stroke="none" 
	d="
M1.000000,189.000000 
	C1.000000,185.969406 1.000000,182.938812 1.397115,179.269196 
	C1.725008,161.380661 4.883422,144.667267 9.999059,128.252106 
	C17.823359,103.145325 30.772905,80.914894 48.217697,61.396965 
	C65.522659,42.035503 86.210800,27.062506 109.989388,16.535717 
	C123.148331,10.710248 136.744675,6.186151 151.038696,3.973207 
	C156.709961,3.095202 162.347244,1.997615 168.000000,1.000000 
	C179.020889,1.000000 190.041794,1.000000 201.707169,1.390544 
	C204.842972,1.856858 207.398361,1.598663 209.815262,2.062311 
	C226.150925,5.196082 242.198120,9.085744 257.635468,15.712574 
	C277.282776,24.146648 294.818634,35.601631 310.383118,50.016731 
	C328.375977,66.680832 342.429291,86.289284 352.417572,108.802895 
	C361.720184,129.771103 367.555328,151.489700 368.041748,174.527191 
	C368.073334,176.024200 368.667511,177.509338 369.000000,179.000000 
	C369.000000,182.030594 369.000000,185.061188 368.601501,188.728088 
	C368.280121,206.617416 365.114014,223.332642 359.999786,239.749802 
	C352.178192,264.857941 339.224609,287.087555 321.779572,306.605865 
	C304.475098,325.966888 283.786987,340.938873 260.009186,351.465332 
	C246.850662,357.290619 233.254501,361.814240 218.960800,364.026794 
	C213.289688,364.904663 207.652588,366.002380 202.000000,367.000000 
	C190.979111,367.000000 179.958206,367.000000 168.292831,366.609436 
	C162.160049,365.481934 156.653580,364.859009 151.186661,363.987915 
	C129.523575,360.536224 109.641045,352.379272 90.752464,341.392853 
	C72.101440,330.544586 56.174797,316.546265 42.587002,299.959595 
	C32.218849,287.303223 23.434099,273.537292 17.037844,258.365356 
	C8.149195,237.281418 2.077204,215.566147 1.955413,192.472626 
	C1.949300,191.313431 1.332470,190.157471 1.000000,189.000000 
M91.675957,327.858032 
	C128.925415,351.608429 169.409592,360.128052 213.003174,353.139526 
	C306.650848,338.126831 370.929138,247.075226 353.710327,154.057602 
	C336.958496,63.562801 255.179916,3.107133 164.021011,13.827751 
	C83.634277,23.281525 19.332146,89.947418 14.371004,171.012711 
	C10.322158,237.171051 36.644150,289.455414 91.675957,327.858032 
z"/>
<path fill="#FFFFFF" opacity="1.000000" stroke="none" 
	d="
M369.000000,178.531342 
	C368.667511,177.509338 368.073334,176.024200 368.041748,174.527191 
	C367.555328,151.489700 361.720184,129.771103 352.417572,108.802895 
	C342.429291,86.289284 328.375977,66.680832 310.383118,50.016731 
	C294.818634,35.601631 277.282776,24.146648 257.635468,15.712574 
	C242.198120,9.085744 226.150925,5.196082 209.815262,2.062311 
	C207.398361,1.598663 204.842972,1.856858 202.175827,1.390544 
	C257.596008,1.000000 313.192017,1.000000 369.000000,1.000000 
	C369.000000,60.020725 369.000000,119.041702 369.000000,178.531342 
z"/>
<path fill="#FFFFFF" opacity="1.000000" stroke="none" 
	d="
M167.531342,1.000000 
	C162.347244,1.997615 156.709961,3.095202 151.038696,3.973207 
	C136.744675,6.186151 123.148331,10.710248 109.989388,16.535717 
	C86.210800,27.062506 65.522659,42.035503 48.217697,61.396965 
	C30.772905,80.914894 17.823359,103.145325 9.999059,128.252106 
	C4.883422,144.667267 1.725008,161.380661 1.397115,178.815094 
	C1.000000,119.741974 1.000000,60.483948 1.000000,1.000000 
	C56.354023,1.000000 111.708351,1.000000 167.531342,1.000000 
z"/>
<path fill="#FFFFFF" opacity="1.000000" stroke="none" 
	d="
M1.000000,189.468658 
	C1.332470,190.157471 1.949300,191.313431 1.955413,192.472626 
	C2.077204,215.566147 8.149195,237.281418 17.037844,258.365356 
	C23.434099,273.537292 32.218849,287.303223 42.587002,299.959595 
	C56.174797,316.546265 72.101440,330.544586 90.752464,341.392853 
	C109.641045,352.379272 129.523575,360.536224 151.186661,363.987915 
	C156.653580,364.859009 162.160049,365.481934 167.824173,366.609436 
	C112.403984,367.000000 56.807972,367.000000 1.000000,367.000000 
	C1.000000,307.979279 1.000000,248.958298 1.000000,189.468658 
z"/>
<path fill="#FFFFFF" opacity="1.000000" stroke="none" 
	d="
M202.468658,367.000000 
	C207.652588,366.002380 213.289688,364.904663 218.960800,364.026794 
	C233.254501,361.814240 246.850662,357.290619 260.009186,351.465332 
	C283.786987,340.938873 304.475098,325.966888 321.779572,306.605865 
	C339.224609,287.087555 352.178192,264.857941 359.999786,239.749802 
	C365.114014,223.332642 368.280121,206.617416 368.601501,189.182205 
	C369.000000,248.258026 369.000000,307.516052 369.000000,367.000000 
	C313.645966,367.000000 258.291656,367.000000 202.468658,367.000000 
z"/>
<path fill="#FDCB29" opacity="1.000000" stroke="none" 
	d="
M91.379578,327.650696 
	C36.644150,289.455414 10.322158,237.171051 14.371004,171.012711 
	C19.332146,89.947418 83.634277,23.281525 164.021011,13.827751 
	C255.179916,3.107133 336.958496,63.562801 353.710327,154.057602 
	C370.929138,247.075226 306.650848,338.126831 213.003174,353.139526 
	C169.409592,360.128052 128.925415,351.608429 91.379578,327.650696 
M82.725365,232.665115 
	C90.045700,261.891113 105.065033,285.709137 132.088531,300.344574 
	C145.358902,307.531555 159.431564,313.226501 173.054550,319.776764 
	C181.995178,324.075653 190.544983,323.388458 199.861649,320.252136 
	C239.094223,307.044922 268.449432,283.442902 283.053741,243.648102 
	C290.339661,223.794891 294.285675,203.124527 294.881805,182.159683 
	C295.747498,151.715927 295.060974,121.227798 294.998413,90.758675 
	C294.995850,89.513260 294.606171,88.268654 294.339233,86.680908 
	C292.704102,87.090134 291.458069,87.401497 290.212311,87.713875 
	C288.762085,88.077507 287.328949,88.540657 285.859528,88.791695 
	C252.284454,94.527870 219.614120,91.490982 187.900650,78.799789 
	C186.325058,78.169266 184.177597,78.229149 182.504822,78.703079 
	C173.450592,81.268341 164.628738,85.129791 155.417938,86.572449 
	C132.623520,90.142677 109.606171,89.374405 86.631790,88.021461 
	C83.052795,87.810699 79.450722,87.991997 75.652885,87.991997 
	C75.415108,89.809929 75.075241,91.275887 75.053101,92.746628 
	C74.687073,117.059441 73.768272,141.383392 74.200165,165.683060 
	C74.596191,187.965302 76.747963,210.184387 82.725365,232.665115 
z"/>
<path fill="#383535" opacity="1.000000" stroke="none" 
	d="
M82.623642,232.266052 
	C76.747963,210.184387 74.596191,187.965302 74.200165,165.683060 
	C73.768272,141.383392 74.687073,117.059441 75.053101,92.746628 
	C75.075241,91.275887 75.415108,89.809929 75.652885,87.991997 
	C79.450722,87.991997 83.052795,87.810699 86.631790,88.021461 
	C109.606171,89.374405 132.623520,90.142677 155.417938,86.572449 
	C164.628738,85.129791 173.450592,81.268341 182.504822,78.703079 
	C184.177597,78.229149 186.325058,78.169266 187.900650,78.799789 
	C219.614120,91.490982 252.284454,94.527870 285.859528,88.791695 
	C287.328949,88.540657 288.762085,88.077507 290.212311,87.713875 
	C291.458069,87.401497 292.704102,87.090134 294.339233,86.680908 
	C294.606171,88.268654 294.995850,89.513260 294.998413,90.758675 
	C295.060974,121.227798 295.747498,151.715927 294.881805,182.159683 
	C294.285675,203.124527 290.339661,223.794891 283.053741,243.648102 
	C268.449432,283.442902 239.094223,307.044922 199.861649,320.252136 
	C190.544983,323.388458 181.995178,324.075653 173.054550,319.776764 
	C159.431564,313.226501 145.358902,307.531555 132.088531,300.344574 
	C105.065033,285.709137 90.045700,261.891113 82.623642,232.266052 
M204.267319,160.075653 
	C201.042755,163.904358 198.474960,162.961914 194.975418,159.807053 
	C179.506134,145.861298 163.308990,132.698746 148.225891,118.358063 
	C139.371445,109.939430 130.059143,104.339088 117.679008,104.126801 
	C113.719810,104.058899 109.782516,102.977448 105.823967,102.443016 
	C104.669563,102.287170 103.476311,102.419052 102.300865,102.419052 
	C102.157013,102.832489 102.013153,103.245934 101.869293,103.659370 
	C131.325363,126.577461 160.781433,149.495544 190.237503,172.413635 
	C190.142960,172.987656 190.048416,173.561676 189.953873,174.135696 
	C179.883820,175.592758 169.813766,177.049835 159.743713,178.506897 
	C159.681229,178.968689 159.618759,179.430466 159.556274,179.892242 
	C163.629288,183.382568 167.702316,186.872879 172.307068,190.818863 
	C168.541077,194.370789 165.156616,197.562866 161.171387,201.038925 
	C153.665115,208.131683 146.091675,215.155487 138.694504,222.360245 
	C136.543823,224.454987 134.790207,224.753738 131.730576,224.045761 
	C126.870720,222.921249 121.682983,222.709427 116.672180,222.940552 
	C113.898994,223.068497 112.599449,222.678925 112.161316,219.984772 
	C111.948914,218.678726 112.002449,216.997986 111.213745,216.203262 
	C110.284409,215.266846 108.573273,215.106354 107.201103,214.609436 
	C106.871452,216.020645 105.836998,217.779358 106.332245,218.783875 
	C108.673668,223.532928 111.433319,228.075775 113.493141,231.718201 
	C109.989120,234.642731 105.870461,237.329224 102.717712,240.874664 
	C96.919975,247.394470 100.933334,254.269012 103.095222,260.882355 
	C103.493935,262.102020 105.014359,263.864288 105.937119,263.817017 
	C107.954391,263.713593 110.082298,262.882263 111.858368,261.830444 
	C113.407410,260.913086 114.504372,259.252289 115.857048,257.979431 
	C118.959641,255.059830 122.140991,252.222443 125.196236,249.254761 
	C126.335556,248.148102 127.212753,246.771591 128.506607,245.144455 
	C130.440247,246.911728 132.023422,248.333069 133.578430,249.784622 
	C138.504501,254.383011 142.907761,259.897308 150.437057,260.143158 
	C151.913742,260.191376 153.419724,259.343109 154.912201,258.908325 
	C153.753952,257.681305 152.803116,256.002716 151.381256,255.349670 
	C149.849594,254.646194 147.876633,254.903519 146.846848,254.809906 
	C146.361572,248.678558 146.644150,242.973221 145.244904,237.715469 
	C144.253571,233.990463 144.821854,232.068237 147.451553,229.648239 
	C153.204987,224.353531 158.657547,218.731903 164.838104,212.962921 
	C170.154770,207.976562 175.471420,202.990204 181.048141,197.759949 
	C200.841171,213.981766 220.378769,229.994247 240.151001,246.199005 
	C237.220520,248.789886 234.675385,251.040070 231.308105,254.017136 
	C243.938400,258.251770 255.611267,262.165375 267.284149,266.079010 
	C267.623596,265.694275 267.963074,265.309570 268.302521,264.924835 
	C263.869934,255.128189 259.437347,245.331558 254.916733,235.340393 
	C253.389557,236.143356 252.643112,236.306396 252.265366,236.769897 
	C248.469330,241.427704 245.451645,239.850159 241.804276,236.187897 
	C231.105713,225.445618 220.012970,215.097046 209.239731,204.427536 
	C203.624527,198.866379 198.356781,192.954376 192.858704,187.123016 
	C201.811142,185.778076 210.841599,184.421432 221.111786,182.878540 
	C216.277863,178.397644 212.586365,174.975754 208.748627,171.418289 
	C230.853043,149.159821 255.043762,129.611053 271.473236,102.811256 
	C267.846649,104.149055 264.455170,105.805893 261.703857,108.198761 
	C246.877960,121.093040 232.146118,134.097870 217.528305,147.227615 
	C213.099991,151.205154 209.138794,155.702789 205.000000,160.000000 
	C205.000000,160.000000 204.962616,159.963440 204.267319,160.075653 
z"/>
<path fill="#BB992F" opacity="1.000000" stroke="none" 
	d="
M161.772171,200.754959 
	C165.156616,197.562866 168.541077,194.370789 172.307068,190.818863 
	C167.702316,186.872879 163.629288,183.382568 159.556274,179.892242 
	C159.618759,179.430466 159.681229,178.968689 159.743713,178.506897 
	C169.813766,177.049835 179.883820,175.592758 189.953873,174.135696 
	C190.048416,173.561676 190.142960,172.987656 190.237503,172.413635 
	C160.781433,149.495544 131.325363,126.577461 101.869293,103.659370 
	C102.013153,103.245934 102.157013,102.832489 102.300865,102.419052 
	C103.476311,102.419052 104.669563,102.287170 105.823967,102.443016 
	C109.782516,102.977448 113.719810,104.058899 117.679008,104.126801 
	C130.059143,104.339088 139.371445,109.939430 148.225891,118.358063 
	C163.308990,132.698746 179.506134,145.861298 194.975418,159.807053 
	C198.474960,162.961914 201.042755,163.904358 204.627625,160.370331 
	C204.042007,162.179993 203.096100,163.694946 201.982849,165.477890 
	C203.608780,167.028961 205.121964,168.472473 207.038986,170.301254 
	C226.426804,150.583908 247.844803,133.448425 263.394684,110.575104 
	C261.123291,111.287621 259.198761,112.432945 257.573883,113.908279 
	C241.931366,128.111191 226.366852,142.400146 210.691330,156.566330 
	C209.077301,158.024948 206.886703,158.845566 204.963623,159.962189 
	C209.138794,155.702789 213.099991,151.205154 217.528305,147.227615 
	C232.146118,134.097870 246.877960,121.093040 261.703857,108.198761 
	C264.455170,105.805893 267.846649,104.149055 271.473236,102.811256 
	C255.043762,129.611053 230.853043,149.159821 208.748627,171.418289 
	C212.586365,174.975754 216.277863,178.397644 221.111786,182.878540 
	C210.841599,184.421432 201.811142,185.778076 192.858704,187.123016 
	C198.356781,192.954376 203.624527,198.866379 209.239731,204.427536 
	C220.012970,215.097046 231.105713,225.445618 241.804276,236.187897 
	C245.451645,239.850159 248.469330,241.427704 252.265366,236.769897 
	C252.643112,236.306396 253.389557,236.143356 254.916733,235.340393 
	C259.437347,245.331558 263.869934,255.128189 268.302521,264.924835 
	C267.963074,265.309570 267.623596,265.694275 267.284149,266.079010 
	C255.611267,262.165375 243.938400,258.251770 231.308105,254.017136 
	C234.675385,251.040070 237.220520,248.789886 240.151001,246.199005 
	C220.378769,229.994247 200.841171,213.981766 181.048141,197.759949 
	C175.471420,202.990204 170.154770,207.976562 164.365692,212.926178 
	C163.893265,212.889450 163.553757,212.534912 163.725388,212.258392 
	C169.203705,207.296555 174.510391,202.611252 179.596848,198.120377 
	C174.443817,191.149216 174.385361,191.208374 169.689606,195.625793 
	C167.437546,197.744370 164.872620,199.530365 162.279907,201.289154 
	C162.110443,201.111313 161.772186,200.754974 161.772171,200.754959 
M263.922272,262.292694 
	C264.075836,262.255981 264.229370,262.219269 264.382935,262.182556 
	C264.246063,262.129242 264.109222,262.075897 264.073883,261.276123 
	C260.724640,253.749176 257.375366,246.222214 253.983810,238.600174 
	C246.506210,243.575348 246.507492,243.574036 240.349625,237.599777 
	C224.084793,221.819992 207.815506,206.044830 191.559708,190.255737 
	C190.332733,189.063980 189.198471,187.776764 187.289948,185.762100 
	C197.355988,184.272446 206.271652,182.953049 215.900742,181.528061 
	C214.553635,180.054428 213.872757,179.153656 213.041962,178.423431 
	C187.262054,155.764679 161.477798,133.110779 135.642349,110.515450 
	C134.450409,109.473007 132.846756,108.540062 131.319199,108.303726 
	C123.767517,107.135330 116.176880,106.218712 107.085556,105.012352 
	C137.551147,128.692902 166.949707,151.544052 196.348282,174.395203 
	C196.154160,174.830338 195.960037,175.265488 195.765915,175.700623 
	C185.181168,177.126099 174.596420,178.551559 162.992203,180.114334 
	C190.269882,202.487213 216.732574,224.191650 243.561111,246.196152 
	C240.839340,248.613708 238.552582,250.644852 235.348343,253.490936 
	C245.485870,256.478851 254.770905,259.215485 263.922272,262.292694 
z"/>
<path fill="#BB992F" opacity="1.000000" stroke="none" 
	d="
M164.063141,213.066620 
	C158.657547,218.731903 153.204987,224.353531 147.451553,229.648239 
	C144.821854,232.068237 144.253571,233.990463 145.244904,237.715469 
	C146.644150,242.973221 146.361572,248.678558 146.846848,254.809906 
	C147.876633,254.903519 149.849594,254.646194 151.381256,255.349670 
	C152.803116,256.002716 153.753952,257.681305 154.912201,258.908325 
	C153.419724,259.343109 151.913742,260.191376 150.437057,260.143158 
	C142.907761,259.897308 138.504501,254.383011 133.578430,249.784622 
	C132.023422,248.333069 130.440247,246.911728 128.506607,245.144455 
	C127.212753,246.771591 126.335556,248.148102 125.196236,249.254761 
	C122.140991,252.222443 118.959641,255.059830 115.857048,257.979431 
	C114.504372,259.252289 113.407410,260.913086 111.858368,261.830444 
	C110.082298,262.882263 107.954391,263.713593 105.937119,263.817017 
	C105.014359,263.864288 103.493935,262.102020 103.095222,260.882355 
	C100.933334,254.269012 96.919975,247.394470 102.717712,240.874664 
	C105.870461,237.329224 109.989120,234.642731 113.493141,231.718201 
	C111.433319,228.075775 108.673668,223.532928 106.332245,218.783875 
	C105.836998,217.779358 106.871452,216.020645 107.201111,214.609436 
	C108.573273,215.106354 110.284409,215.266846 111.213745,216.203262 
	C112.002449,216.997986 111.948914,218.678726 112.161316,219.984772 
	C112.599449,222.678925 113.898994,223.068497 116.672180,222.940552 
	C121.682983,222.709427 126.870720,222.921249 131.730576,224.045761 
	C134.790207,224.753738 136.543823,224.454987 138.694504,222.360245 
	C146.091675,215.155487 153.665115,208.131683 161.471786,200.896942 
	C161.772186,200.754974 162.110443,201.111313 162.105927,201.562515 
	C155.110168,208.874222 148.030014,215.648300 141.204697,222.670074 
	C139.880859,224.032013 138.422394,226.859116 138.989655,228.142303 
	C140.308960,231.126648 142.692154,231.807877 145.619720,228.952957 
	C151.419312,223.297318 157.556259,217.987610 163.553757,212.534912 
	C163.553757,212.534912 163.893265,212.889450 164.063141,213.066620 
M138.035461,246.477615 
	C139.696503,247.954300 141.357544,249.431000 143.139038,251.014771 
	C146.941895,243.447449 143.902252,234.863159 135.539124,228.099869 
	C130.088226,223.691727 121.186356,222.632797 118.580574,224.626053 
	C124.776535,231.607803 131.152832,238.792786 138.035461,246.477615 
M113.990784,247.490952 
	C116.977081,245.234619 119.963379,242.978302 122.965935,240.709671 
	C120.782669,236.642990 118.147614,234.747360 114.347183,237.526413 
	C111.298180,239.755951 108.500023,242.365494 105.807076,245.025604 
	C104.817535,246.003082 103.787926,247.702042 103.956680,248.906601 
	C104.193802,250.599182 105.328148,252.332748 106.545776,253.600098 
	C106.837959,253.904221 109.133873,252.636047 110.214455,251.737595 
	C111.470253,250.693451 112.402740,249.260452 113.990784,247.490952 
M115.389488,255.907700 
	C117.841980,253.755234 120.426819,251.728668 122.666801,249.374054 
	C123.343628,248.662598 123.064392,247.041611 123.223114,245.837265 
	C122.016243,245.793045 120.377464,245.223068 119.678589,245.797195 
	C116.911705,248.070236 113.988113,250.390457 111.988235,253.290192 
	C110.108292,256.016052 111.613907,257.287415 115.389488,255.907700 
z"/>
<path fill="#FCFBF8" opacity="1.000000" stroke="none" 
	d="
M264.055939,261.952118 
	C254.770905,259.215485 245.485870,256.478851 235.348343,253.490936 
	C238.552582,250.644852 240.839340,248.613708 243.561111,246.196152 
	C216.732574,224.191650 190.269882,202.487213 162.992203,180.114334 
	C174.596420,178.551559 185.181168,177.126099 195.765915,175.700623 
	C195.960037,175.265488 196.154160,174.830338 196.348282,174.395203 
	C166.949707,151.544052 137.551147,128.692902 107.085556,105.012352 
	C116.176880,106.218712 123.767517,107.135330 131.319199,108.303726 
	C132.846756,108.540062 134.450409,109.473007 135.642349,110.515450 
	C161.477798,133.110779 187.262054,155.764679 213.041962,178.423431 
	C213.872757,179.153656 214.553635,180.054428 215.900742,181.528061 
	C206.271652,182.953049 197.355988,184.272446 187.289948,185.762100 
	C189.198471,187.776764 190.332733,189.063980 191.559708,190.255737 
	C207.815506,206.044830 224.084793,221.819992 240.349625,237.599777 
	C246.507492,243.574036 246.506210,243.575348 253.983810,238.600174 
	C257.375366,246.222214 260.724640,253.749176 264.043854,261.631531 
	C264.013824,261.986969 264.055939,261.952118 264.055939,261.952118 
z"/>
<path fill="#FCCA29" opacity="1.000000" stroke="none" 
	d="
M204.981812,159.981110 
	C206.886703,158.845566 209.077301,158.024948 210.691330,156.566330 
	C226.366852,142.400146 241.931366,128.111191 257.573883,113.908279 
	C259.198761,112.432945 261.123291,111.287621 263.394684,110.575104 
	C247.844803,133.448425 226.426804,150.583908 207.038986,170.301254 
	C205.121964,168.472473 203.608780,167.028961 201.982849,165.477890 
	C203.096100,163.694946 204.042007,162.179993 204.975281,160.314240 
	C204.962616,159.963440 205.000000,160.000000 204.981812,159.981110 
z"/>
<path fill="#FDCA29" opacity="1.000000" stroke="none" 
	d="
M163.725388,212.258392 
	C157.556259,217.987610 151.419312,223.297318 145.619720,228.952957 
	C142.692154,231.807877 140.308960,231.126648 138.989655,228.142303 
	C138.422394,226.859116 139.880859,224.032013 141.204697,222.670074 
	C148.030014,215.648300 155.110168,208.874222 162.275391,201.740356 
	C164.872620,199.530365 167.437546,197.744370 169.689606,195.625793 
	C174.385361,191.208374 174.443817,191.149216 179.596848,198.120377 
	C174.510391,202.611252 169.203705,207.296555 163.725388,212.258392 
z"/>
<path fill="#FCFBF8" opacity="1.000000" stroke="none" 
	d="
M263.993103,262.004761 
	C264.109222,262.075897 264.246063,262.129242 264.382935,262.182556 
	C264.229370,262.219269 264.075836,262.255981 263.989105,262.122406 
	C264.055939,261.952118 264.013824,261.986969 263.993103,262.004761 
z"/>
<path fill="#FDCB29" opacity="1.000000" stroke="none" 
	d="
M137.782303,246.227692 
	C131.152832,238.792786 124.776535,231.607803 118.580574,224.626053 
	C121.186356,222.632797 130.088226,223.691727 135.539124,228.099869 
	C143.902252,234.863159 146.941895,243.447449 143.139038,251.014771 
	C141.357544,249.431000 139.696503,247.954300 137.782303,246.227692 
z"/>
<path fill="#3D3834" opacity="1.000000" stroke="none" 
	d="
M113.733162,247.743576 
	C112.402740,249.260452 111.470253,250.693451 110.214455,251.737595 
	C109.133873,252.636047 106.837959,253.904221 106.545776,253.600098 
	C105.328148,252.332748 104.193802,250.599182 103.956680,248.906601 
	C103.787926,247.702042 104.817535,246.003082 105.807076,245.025604 
	C108.500023,242.365494 111.298180,239.755951 114.347183,237.526413 
	C118.147614,234.747360 120.782669,236.642990 122.965935,240.709671 
	C119.963379,242.978302 116.977081,245.234619 113.733162,247.743576 
z"/>
<path fill="#FDCA29" opacity="1.000000" stroke="none" 
	d="
M115.067337,256.055786 
	C111.613907,257.287415 110.108292,256.016052 111.988235,253.290192 
	C113.988113,250.390457 116.911705,248.070236 119.678589,245.797195 
	C120.377464,245.223068 122.016243,245.793045 123.223114,245.837265 
	C123.064392,247.041611 123.343628,248.662598 122.666801,249.374054 
	C120.426819,251.728668 117.841980,253.755234 115.067337,256.055786 
z"/>
</svg>